<svg xmlns="http://www.w3.org/2000/svg" width="21.196" height="21.196" viewBox="0 0 21.196 21.196">
  <g id="Group_11072" data-name="Group 11072" transform="translate(-15.119)">
    <path id="Icon_material-outline-dashboard" data-name="Icon material-outline-dashboard" d="M23.341,6.855V9.21H18.63V6.855h4.71M11.515,13.92H6.805V6.855h4.71m11.825,9.42v7.065H18.63V16.275h4.71m-11.775,4.71v2.355H6.855V20.985h4.71M25.7,4.5h-9.42v7.065H25.7ZM13.92,4.5H4.5V16.275h9.42ZM25.7,13.92h-9.42V25.7H25.7ZM13.92,18.63H4.5V25.7h9.42Z" transform="translate(10.619 -4.5)" fill="#333"/>
    <rect id="Rectangle_4437" data-name="Rectangle 4437" width="7.5" height="9.5" transform="translate(16.121 1)" fill="#fff"/>
    <path id="Path_18281" data-name="Path 18281" d="M-.429-.295H7.5V5.232H-.429Z" transform="translate(28.121 1.098)" fill="#fff"/>
    <path id="Path_18282" data-name="Path 18282" d="M-.429-.295H7.5V5.232H-.429Z" transform="translate(16.336 15.098)" fill="#fff"/>
    <rect id="Rectangle_4438" data-name="Rectangle 4438" width="7.5" height="9.5" transform="translate(27.906 10.598)" fill="#fff"/>
  </g>
</svg>
