<svg xmlns="http://www.w3.org/2000/svg" width="18.406" height="21.67" viewBox="0 0 18.406 21.67">
  <g id="Icon_akar-clipboard" data-name="Icon akar-clipboard" transform="translate(-5.5 -2.5)">
    <path id="Path_18287" data-name="Path 18287" d="M18.511,6h2.72a2.176,2.176,0,0,1,2.176,2.176V22.318a2.176,2.176,0,0,1-2.176,2.176H8.176A2.176,2.176,0,0,1,6,22.318V8.176A2.176,2.176,0,0,1,8.176,6H10.9" transform="translate(0 -0.824)" fill="none" stroke="#525252" stroke-linecap="round" stroke-linejoin="round" stroke-width="1"/>
    <path id="Path_18288" data-name="Path 18288" d="M12.676,4.648A2.176,2.176,0,0,1,14.786,3h3.13a2.176,2.176,0,0,1,2.11,1.648l.677,2.7H12Z" transform="translate(-1.648)" fill="none" stroke="#525252" stroke-linecap="round" stroke-linejoin="round" stroke-width="1"/>
    <path id="Path_18289" data-name="Path 18289" d="M13.5,18h6.527M13.5,22.352h6.527" transform="translate(-2.061 -4.121)" fill="none" stroke="#525252" stroke-linecap="round" stroke-width="1"/>
  </g>
</svg>
