<svg xmlns="http://www.w3.org/2000/svg" width="19.594" height="26.125" viewBox="0 0 19.594 26.125">
  <path id="Icon_fa-solid-building" data-name="Icon fa-solid-building" d="M2.449,0A2.45,2.45,0,0,0,0,2.449V23.676a2.45,2.45,0,0,0,2.449,2.449h4.9V22.043a2.449,2.449,0,0,1,4.9,0v4.082h4.9a2.45,2.45,0,0,0,2.449-2.449V2.449A2.45,2.45,0,0,0,17.145,0Zm.816,12.246a.819.819,0,0,1,.816-.816H5.715a.819.819,0,0,1,.816.816v1.633a.819.819,0,0,1-.816.816H4.082a.819.819,0,0,1-.816-.816ZM8.98,11.43h1.633a.819.819,0,0,1,.816.816v1.633a.819.819,0,0,1-.816.816H8.98a.819.819,0,0,1-.816-.816V12.246A.819.819,0,0,1,8.98,11.43Zm4.082.816a.819.819,0,0,1,.816-.816h1.633a.819.819,0,0,1,.816.816v1.633a.819.819,0,0,1-.816.816H13.879a.819.819,0,0,1-.816-.816ZM4.082,4.9H5.715a.819.819,0,0,1,.816.816V7.348a.819.819,0,0,1-.816.816H4.082a.819.819,0,0,1-.816-.816V5.715A.819.819,0,0,1,4.082,4.9Zm4.082.816A.819.819,0,0,1,8.98,4.9h1.633a.819.819,0,0,1,.816.816V7.348a.819.819,0,0,1-.816.816H8.98a.819.819,0,0,1-.816-.816ZM13.879,4.9h1.633a.819.819,0,0,1,.816.816V7.348a.819.819,0,0,1-.816.816H13.879a.819.819,0,0,1-.816-.816V5.715A.819.819,0,0,1,13.879,4.9Z" fill="#9c9c9c"/>
</svg>
