<svg xmlns="http://www.w3.org/2000/svg" width="19.594" height="26.125" viewBox="0 0 19.594 26.125">
  <path id="Icon_fa-solid-file-invoice" data-name="Icon fa-solid-file-invoice" d="M3.266,0A3.269,3.269,0,0,0,0,3.266V22.859a3.269,3.269,0,0,0,3.266,3.266H16.328a3.269,3.269,0,0,0,3.266-3.266V8.164H13.063A1.631,1.631,0,0,1,11.43,6.531V0Zm9.8,0V6.531h6.531ZM4.082,3.266H7.348a.816.816,0,1,1,0,1.633H4.082a.816.816,0,0,1,0-1.633Zm0,3.266H7.348a.816.816,0,1,1,0,1.633H4.082a.816.816,0,1,1,0-1.633Zm.816,4.9h9.8a1.631,1.631,0,0,1,1.633,1.633v3.266A1.631,1.631,0,0,1,14.7,17.961H4.9a1.631,1.631,0,0,1-1.633-1.633V13.063A1.631,1.631,0,0,1,4.9,11.43Zm0,1.633v3.266h9.8V13.063Zm7.348,8.164h3.266a.816.816,0,1,1,0,1.633H12.246a.816.816,0,0,1,0-1.633Z" fill="#9c9c9c"/>
</svg>
