<svg xmlns="http://www.w3.org/2000/svg" width="23.211" height="20.31" viewBox="0 0 23.211 20.31">
  <g id="Icon_ion-images" data-name="Icon ion-images" transform="translate(0 -2.25)">
    <path id="Path_287" data-name="Path 287" d="M22.412,7.875H8.436a2.8,2.8,0,0,0-2.811,2.78V21.778a2.8,2.8,0,0,0,2.811,2.78H22.4a2.754,2.754,0,0,0,2.811-2.72V10.655a2.792,2.792,0,0,0-2.8-2.78Zm-3.5,2.781a2.085,2.085,0,1,1-2.1,2.085,2.085,2.085,0,0,1,2.1-2.085ZM8.417,23.168a1.358,1.358,0,0,1-1.354-1.39V18.839l4.1-3.663a2.11,2.11,0,0,1,2.876.083l2.84,2.816-5.123,5.092Zm15.341-1.39a1.39,1.39,0,0,1-1.392,1.39H13.74l5.308-5.274a2.1,2.1,0,0,1,2.695-.007L23.759,19.6Z" transform="translate(-1.998 -1.998)" fill="#9c9c9c"/>
    <path id="Path_288" data-name="Path 288" d="M17.408,2.25H2.9A2.9,2.9,0,0,0,0,5.151V16.757a2.906,2.906,0,0,0,2.176,2.811V7.69A3.264,3.264,0,0,1,5.44,4.426H20.219A2.906,2.906,0,0,0,17.408,2.25Z" fill="#9c9c9c"/>
  </g>
</svg>
