<svg xmlns="http://www.w3.org/2000/svg" width="45.132" height="45.042" viewBox="0 0 45.132 45.042">
  <path id="Icon_material-round-miscellaneous-services" data-name="Icon material-round-miscellaneous-services" d="M30.462,29.425l3.159-5.461a.8.8,0,0,0-.181-1.015L30.1,20.331a11.421,11.421,0,0,0,.113-1.534,12.044,12.044,0,0,0-.113-1.557l3.34-2.618a.8.8,0,0,0,.181-1.015L30.462,8.145a.8.8,0,0,0-.97-.338l-3.926,1.58A11.6,11.6,0,0,0,22.9,7.829l-.587-4.175A.821.821,0,0,0,21.526,3H15.207a.819.819,0,0,0-.79.677l-.587,4.175a12.1,12.1,0,0,0-2.663,1.557L7.241,7.829a.8.8,0,0,0-.97.338L3.112,13.629a.8.8,0,0,0,.181,1.015l3.34,2.618A11.42,11.42,0,0,0,6.519,18.8a12.044,12.044,0,0,0,.113,1.557l-3.34,2.618a.8.8,0,0,0-.181,1.015l3.159,5.461a.8.8,0,0,0,.97.338l3.926-1.58a11.6,11.6,0,0,0,2.663,1.557l.587,4.175a.821.821,0,0,0,.79.654h6.318a.819.819,0,0,0,.79-.677l.587-4.175a12.1,12.1,0,0,0,2.663-1.557l3.926,1.58a.8.8,0,0,0,.97-.338Zm-12.1-6.115A4.513,4.513,0,1,1,22.879,18.8,4.526,4.526,0,0,1,18.366,23.309ZM47.95,40.617l-2.166-1.67a7.058,7.058,0,0,0,.09-.993,4.782,4.782,0,0,0-.09-.993l2.144-1.67a.516.516,0,0,0,.113-.654l-2.031-3.5a.526.526,0,0,0-.632-.226l-2.5,1.015a6.81,6.81,0,0,0-1.715-.993l-.384-2.663a.487.487,0,0,0-.474-.451H36.261a.491.491,0,0,0-.5.429l-.384,2.663a8.091,8.091,0,0,0-1.715.993l-2.5-1.015a.519.519,0,0,0-.632.226l-2.031,3.5a.516.516,0,0,0,.113.654l2.144,1.67a7.1,7.1,0,0,0,0,1.986l-2.144,1.67a.516.516,0,0,0-.113.654l2.031,3.5a.526.526,0,0,0,.632.226l2.5-1.015a6.81,6.81,0,0,0,1.715.993l.384,2.663a.507.507,0,0,0,.5.429H40.3a.491.491,0,0,0,.5-.429l.384-2.663a7.413,7.413,0,0,0,1.692-.993L45.4,44.973a.519.519,0,0,0,.632-.226l2.031-3.5A.49.49,0,0,0,47.95,40.617Zm-9.681.361a3.048,3.048,0,1,1,3.049-3.046,3.048,3.048,0,0,1-3.049,3.046Z" transform="translate(-3.002 -3)" fill="#fff"/>
</svg>
