<svg xmlns="http://www.w3.org/2000/svg" width="18.088" height="20.672" viewBox="0 0 18.088 20.672">
  <path id="Icon_fa-solid-bell" data-name="Icon fa-solid-bell" d="M9.045,0A1.291,1.291,0,0,0,7.753,1.292v.775A6.463,6.463,0,0,0,2.585,8.4v.759A7.771,7.771,0,0,1,.626,14.309l-.3.335A1.292,1.292,0,0,0,1.293,16.8H16.8a1.292,1.292,0,0,0,.965-2.152l-.3-.335A7.763,7.763,0,0,1,15.5,9.157V8.4a6.463,6.463,0,0,0-5.168-6.331V1.292A1.291,1.291,0,0,0,9.045,0Zm1.829,19.917a2.585,2.585,0,0,0,.755-1.829H6.461a2.587,2.587,0,0,0,4.413,1.829Z" transform="translate(-0.001)" fill="#9c9c9c"/>
</svg>
