<svg xmlns="http://www.w3.org/2000/svg" width="14.971" height="18.429" viewBox="0 0 14.971 18.429">
  <g id="Icon_akar-bell" data-name="Icon akar-bell" transform="translate(-5.485 -2.5)">
    <path id="Path_18285" data-name="Path 18285" d="M13.6,7.5l-1.278,0a5.439,5.439,0,0,0-5.464,5.229v3.3A3.43,3.43,0,0,1,6.4,17.964l-.25.382A.871.871,0,0,0,6.858,19.7H19.084a.872.872,0,0,0,.713-1.354l-.25-.382a3.44,3.44,0,0,1-.463-1.934v-3.3A5.476,5.476,0,0,0,13.6,7.5Zm1.986,12.2a2.614,2.614,0,0,1-5.229,0" transform="translate(0 -1.886)" fill="none" stroke="#525252" stroke-linecap="round" stroke-linejoin="round" stroke-width="1"/>
    <path id="Path_18286" data-name="Path 18286" d="M16.743,3a1.743,1.743,0,0,1,1.743,1.743v.871H15V4.743A1.743,1.743,0,0,1,16.743,3Z" transform="translate(-3.772)" fill="none" stroke="#525252" stroke-linecap="round" stroke-linejoin="round" stroke-width="1"/>
  </g>
</svg>
