<svg xmlns="http://www.w3.org/2000/svg" width="17.962" height="24.832" viewBox="0 0 17.962 24.832">
  <g id="Layer_2" data-name="Layer 2" transform="translate(-0.5 -0.5)">
    <g id="Icon" transform="translate(1 1)">
      <path id="Path_18231" data-name="Path 18231" d="M6.51,25.53h-2v3.757a4.379,4.379,0,0,0,4.372,4.372H14.49a4.379,4.379,0,0,0,4.353-4.372V25.53H16.862" transform="translate(-3.203 -16.396)" fill="none" stroke="#e14304" stroke-linecap="round" stroke-linejoin="round" stroke-width="1"/>
      <rect id="Rectangle_4423" data-name="Rectangle 4423" width="10.352" height="15.264" rx="2" transform="translate(3.307)" fill="none" stroke="#e14304" stroke-linecap="round" stroke-linejoin="round" stroke-width="1"/>
      <path id="Path_18232" data-name="Path 18232" d="M31.617,28.93h-3.6" transform="translate(-17.958 -18.529)" fill="none" stroke="#e14304" stroke-linecap="round" stroke-linejoin="round" stroke-width="1"/>
      <path id="Path_18233" data-name="Path 18233" d="M28.02,23.2h3.6" transform="translate(-17.958 -14.933)" fill="none" stroke="#e14304" stroke-linecap="round" stroke-linejoin="round" stroke-width="1"/>
      <path id="Path_18234" data-name="Path 18234" d="M31.617,34.67h-3.6" transform="translate(-17.958 -22.132)" fill="none" stroke="#e14304" stroke-linecap="round" stroke-linejoin="round" stroke-width="1"/>
      <path id="Path_18235" data-name="Path 18235" d="M28.02,17.46h3.6" transform="translate(-17.958 -11.331)" fill="none" stroke="#e14304" stroke-linecap="round" stroke-linejoin="round" stroke-width="1"/>
      <path id="Path_18236" data-name="Path 18236" d="M13.473,19.79H9.88" transform="translate(-6.573 -12.793)" fill="none" stroke="#e14304" stroke-linecap="round" stroke-linejoin="round" stroke-width="1"/>
      <path id="Path_18237" data-name="Path 18237" d="M9.88,14.06h3.593" transform="translate(-6.573 -9.197)" fill="none" stroke="#e14304" stroke-linecap="round" stroke-linejoin="round" stroke-width="1"/>
      <path id="Path_18238" data-name="Path 18238" d="M13.473,25.53H9.88" transform="translate(-6.573 -16.396)" fill="none" stroke="#e14304" stroke-linecap="round" stroke-linejoin="round" stroke-width="1"/>
      <path id="Path_18239" data-name="Path 18239" d="M9.88,8.33h3.593" transform="translate(-6.573 -5.6)" fill="none" stroke="#e14304" stroke-linecap="round" stroke-linejoin="round" stroke-width="1"/>
      <path id="Path_18240" data-name="Path 18240" d="M27.53,47.36v6.569" transform="translate(-17.651 -30.096)" fill="none" stroke="#e14304" stroke-linecap="round" stroke-linejoin="round" stroke-width="1"/>
      <path id="Path_18241" data-name="Path 18241" d="M20.03,53.929V47.36" transform="translate(-12.944 -30.096)" fill="none" stroke="#e14304" stroke-linecap="round" stroke-linejoin="round" stroke-width="1"/>
      <path id="Path_18242" data-name="Path 18242" d="M17.962,65H1" transform="translate(-1 -41.168)" fill="none" stroke="#e14304" stroke-linecap="round" stroke-linejoin="round" stroke-width="1"/>
    </g>
  </g>
</svg>
