<svg xmlns="http://www.w3.org/2000/svg" width="25.931" height="25.933" viewBox="0 0 25.931 25.933">
  <g id="Layer_21" data-name="Layer 21" transform="translate(-0.023 0.002)">
    <path id="Path_18262" data-name="Path 18262" d="M25.838,4.095l-.461-.461a1.189,1.189,0,0,0,.116-.395,1.205,1.205,0,0,0-.347-.974L23.69.81A1.179,1.179,0,0,0,22.321.577l-.459-.46a.406.406,0,1,0-.576.573l.446.446-.223.335-.217-.216a.405.405,0,1,0-.573.573l.333.333-.223.335-.1-.106a.405.405,0,1,0-.573.573l.22.22-.248.372-5.5,5.5a4.612,4.612,0,0,0-4.182-.788.405.405,0,0,0,.233.777,3.854,3.854,0,0,1,3.369.589l-1.63,1.631a3.619,3.619,0,1,0,2.278,2.278l1.635-1.635a3.717,3.717,0,0,1-.281,4.816,3.6,3.6,0,0,1-.535.424,3.729,3.729,0,0,0-1.724,3.206,4.722,4.722,0,0,1-1.7,3.709,4.857,4.857,0,0,1-6.23-.151A36.121,36.121,0,0,1,2.041,20.1a4.855,4.855,0,0,1-.154-6.229,4.76,4.76,0,0,1,1.92-1.378.405.405,0,1,0-.293-.756,5.574,5.574,0,0,0-2.248,1.611,5.675,5.675,0,0,0,.16,7.28,36.892,36.892,0,0,0,3.9,3.9,5.819,5.819,0,0,0,3.788,1.4,5.411,5.411,0,0,0,3.492-1.245,5.529,5.529,0,0,0,1.986-4.343,2.925,2.925,0,0,1,1.352-2.508,4.4,4.4,0,0,0,.657-.521,4.553,4.553,0,0,0,.294-5.976l5.5-5.5.372-.248.219.219a.405.405,0,1,0,.574-.573l-.1-.1.335-.223.333.334a.405.405,0,0,0,.572-.573l-.218-.219.335-.223.446.446a.405.405,0,1,0,.573-.574ZM22.795,1.269a.405.405,0,0,1,.321.115l1.455,1.455a.4.4,0,0,1-.061.613L22.192,5,20.958,3.762,22.5,1.444A.4.4,0,0,1,22.795,1.269ZM11.262,13.092a1.6,1.6,0,1,1-1.135.469,1.6,1.6,0,0,1,1.135-.469Zm1.986,3.589a2.809,2.809,0,1,1-1.5-4.749l-.353.353c-.043,0-.086-.006-.13-.006a2.414,2.414,0,1,0,2.414,2.414c0-.044,0-.087-.006-.13l.353-.353a2.8,2.8,0,0,1-.775,2.469Zm.189-3.03a2.385,2.385,0,0,0-1.131-1.131l8.131-8.131L21.568,5.52Z" transform="translate(0 0)" fill="#333"/>
    <path id="Path_18263" data-name="Path 18263" d="M10.137,40.381a1.007,1.007,0,0,0,0,1.425L13.831,45.5a1.008,1.008,0,1,0,1.426-1.426l-3.694-3.694A1.032,1.032,0,0,0,10.137,40.381Zm4.546,4.546a.2.2,0,0,1-.279,0l-3.694-3.7a.194.194,0,0,1-.058-.139.2.2,0,0,1,.337-.14l3.694,3.693a.2.2,0,0,1,0,.281Z" transform="translate(-5.839 -23.844)" fill="#333"/>
    <path id="Path_18264" data-name="Path 18264" d="M27.216,6.485a1.216,1.216,0,0,0,1.216-1.216V3.153l2.432-.608v.77a1.2,1.2,0,0,0-.405-.073,1.216,1.216,0,1,0,1.216,1.216V.4a.405.405,0,0,0-.156-.319.4.4,0,0,0-.348-.074L27.928.822a.405.405,0,0,0-.307.393V4.127a1.2,1.2,0,0,0-.405-.075,1.216,1.216,0,0,0,0,2.432Zm3.243-1.621a.405.405,0,1,1,.405-.405A.405.405,0,0,1,30.459,4.864Zm.405-3.94V1.71l-2.432.608V1.532Zm-3.648,3.94a.405.405,0,1,1-.405.405A.405.405,0,0,1,27.216,4.864Z" transform="translate(-15.447 0)" fill="#333"/>
    <path id="Path_18265" data-name="Path 18265" d="M11.216,20.486a1.216,1.216,0,0,0,1.216-1.216V17.154l2.432-.608v.77a1.2,1.2,0,0,0-.405-.073,1.216,1.216,0,1,0,1.216,1.216V14.405a.405.405,0,0,0-.5-.393l-3.243.811a.405.405,0,0,0-.307.393v2.912a1.2,1.2,0,0,0-.405-.075,1.216,1.216,0,0,0,0,2.432Zm3.243-1.621a.405.405,0,1,1,.405-.405A.405.405,0,0,1,14.459,18.864Zm.405-3.94v.786l-2.432.608v-.786Zm-3.648,3.94a.405.405,0,1,1-.405.405A.405.405,0,0,1,11.216,18.864Z" transform="translate(-5.933 -8.326)" fill="#333"/>
  </g>
</svg>
