<svg xmlns="http://www.w3.org/2000/svg" width="43" height="44" viewBox="0 0 43 44">
  <g id="Group_11012" data-name="Group 11012" transform="translate(-0.438)">
    <g id="Rectangle_1138" data-name="Rectangle 1138" transform="translate(0.438)" fill="none" stroke="#333" stroke-width="1">
      <rect width="43" height="44" rx="11" stroke="none"/>
      <rect x="0.5" y="0.5" width="42" height="43" rx="10.5" fill="none"/>
    </g>
    <path id="Icon_akar-linkedin-fill" data-name="Icon akar-linkedin-fill" d="M11.429,10.907h4.214v2.1a4.834,4.834,0,0,1,4.5-2.292c4.483,0,5.547,2.4,5.547,6.812v8.166H21.154V18.531c0-2.511-.607-3.927-2.152-3.927-2.143,0-3.034,1.526-3.034,3.926v7.163H11.429V10.907ZM3.647,25.5H8.185V10.714H3.647ZM8.835,5.893a2.871,2.871,0,0,1-.854,2.045A2.917,2.917,0,0,1,3,5.893a2.875,2.875,0,0,1,.854-2.046,2.935,2.935,0,0,1,4.127,0A2.88,2.88,0,0,1,8.835,5.893Z" transform="translate(7.487 7.59)" fill="#333"/>
  </g>
</svg>
