<?xml version="1.0" encoding="utf-8"?>
<!-- Generator: Adobe Illustrator 28.2.0, SVG Export Plug-In . SVG Version: 6.00 Build 0)  -->
<svg version="1.1" id="Layer_1" xmlns="http://www.w3.org/2000/svg" xmlns:xlink="http://www.w3.org/1999/xlink" x="0px" y="0px"
	 viewBox="0 0 496.1 118.1" style="enable-background:new 0 0 496.1 118.1;" xml:space="preserve">
<g>
	<image style="overflow:visible;" width="1378" height="328" xlink:href="9CE11A60.jpg"  transform="matrix(0.36 0 0 0.36 0 0)">
	</image>
	<g>
		<defs>
			<path id="SVGID_1_" d="M32.1,39.7c-2.7,2.7-6.4,4.1-11,4.1h-1.4v23.4h-6.9V13.7h7.3c4.9,0,8.8,1.3,11.7,3.9
				c2.9,2.6,4.4,6.2,4.4,10.9C36.2,33.3,34.8,37,32.1,39.7L32.1,39.7z M19.7,20.1v17.2h1.2c5.6,0,8.4-3.1,8.4-9.2
				C29.3,22.7,26.1,20,19.7,20.1L19.7,20.1z M47.5,19.2c-0.7,0.7-1.5,1.1-2.5,1.1c-1,0-1.8-0.4-2.5-1.1c-0.7-0.7-1.1-1.5-1.1-2.5
				c0-1,0.4-1.9,1.1-2.6c0.7-0.7,1.5-1,2.5-1c1,0,1.8,0.3,2.5,1c0.7,0.7,1.1,1.5,1.1,2.6C48.5,17.6,48.2,18.5,47.5,19.2L47.5,19.2z
				 M48.1,67.2h-6.2V31.8h6.2V67.2L48.1,67.2z M70.4,86.3V65.1h-0.2c-1.3,2-3.1,3-5.4,3c-2.9,0-5.4-1.7-7.3-5
				c-1.9-3.4-2.9-7.9-2.9-13.6c0-5.7,0.9-10.1,2.8-13.4c1.9-3.3,4.3-5,7.3-5c2.3,0,4.2,1.1,5.5,3.2h0.2v-2.6h6.2v54.5H70.4
				L70.4,86.3z M70.4,40.7c-1.1-2.4-2.5-3.6-4.3-3.6c-3.4,0-5.1,4.3-5.1,12.8c0,3.9,0.5,6.9,1.5,9.1c1,2.2,2.3,3.2,4,3.2
				c1.1,0,2.1-0.5,2.8-1.6c0.7-1.1,1.1-1.7,1.1-1.9V40.7L70.4,40.7z M98.2,67.2v-3.8H98c-1.7,2.9-3.8,4.4-6.3,4.4
				c-2.4,0-4.3-0.9-5.8-2.7c-1.5-1.8-2.2-4.3-2.2-7.5V31.8H90v25.4c0,3.4,1.1,5,3.3,5c1.3,0,2.4-0.6,3.4-1.8c1-1.2,1.5-2,1.5-2.4
				V31.8h6.2v35.4H98.2L98.2,67.2z M130.7,50.9h-13.1c0,7.7,2.1,11.5,6.3,11.5c2.3,0,4.3-1.2,6.1-3.5V65c-2.2,2.1-4.6,3.1-7.3,3.1
				c-3.6,0-6.4-1.6-8.4-4.8c-2-3.2-3-7.9-3-13.9c0-5.9,0.9-10.5,2.6-13.7c1.7-3.3,4.1-4.9,7.2-4.9C127.7,30.8,130.8,37.5,130.7,50.9
				L130.7,50.9z M120.9,36.2c-2.2,0-3.3,3.3-3.3,9.9h6.9C124.4,39.6,123.2,36.2,120.9,36.2L120.9,36.2z M184.6,60.8v6.4H165V13.7h19
				v6.4h-12.1v16H183v6.4h-11.1v18.2H184.6L184.6,60.8z M207.8,67.2V41.8c0-3.4-1.1-5.1-3.4-5.1c-1.3,0-2.4,0.6-3.4,1.9
				c-1,1.3-1.5,2.1-1.5,2.3v26.2h-6.2V31.8h6.2v3.8h0.2c1.7-2.9,3.9-4.4,6.6-4.4c2.3,0,4.2,0.9,5.6,2.8c1.4,1.8,2.1,4.4,2.1,7.7
				v25.5H207.8L207.8,67.2z M229.9,61.2c0.4,0.7,1,1,1.9,1c0.9,0,2-0.3,3.4-1v5.5c-2.1,0.9-3.9,1.4-5.5,1.4c-4.4,0-6.6-2.6-6.6-7.9
				v-23H219v-0.5c3-3.6,6.2-8.3,9.8-14.1h0.5v9.1h5.8v5.5h-5.8v20.2C229.3,59.3,229.5,60.6,229.9,61.2L229.9,61.2z M258.1,50.9H245
				c0,7.7,2.1,11.5,6.3,11.5c2.3,0,4.3-1.2,6.1-3.5V65c-2.2,2.1-4.6,3.1-7.3,3.1c-3.6,0-6.4-1.6-8.4-4.8c-2-3.2-3-7.9-3-13.9
				c0-5.9,0.9-10.5,2.6-13.7c1.7-3.3,4.1-4.9,7.2-4.9C255.1,30.8,258.2,37.5,258.1,50.9L258.1,50.9z M248.3,36.2
				c-2.2,0-3.3,3.3-3.3,9.9h6.9C251.9,39.6,250.7,36.2,248.3,36.2L248.3,36.2z M280.8,38.6c-0.9-0.6-1.8-0.9-2.7-0.9
				c-2,0-3.6,1.8-4.8,5.3c-1.3,3.5-1.9,6.9-1.9,10.1v14.1h-6.2V31.8h6.2v9.6h0.2c1.3-4.2,2.3-7,3.1-8.2c0.8-1.3,2-1.9,3.5-1.9
				c1.1,0,2.2,0.4,3.2,1.1L280.8,38.6L280.8,38.6z M295.2,61.2c0.4,0.7,1,1,1.9,1c0.9,0,2-0.3,3.4-1v5.5c-2.1,0.9-3.9,1.4-5.5,1.4
				c-4.4,0-6.6-2.6-6.6-7.9v-23h-4.1v-0.5c3-3.6,6.2-8.3,9.8-14.1h0.5v9.1h5.8v5.5h-5.8v20.2C294.7,59.3,294.9,60.6,295.2,61.2
				L295.2,61.2z M322.3,68c-2.3,0-3.9-1.5-4.6-4.5c-2.3,3.1-4.5,4.6-6.8,4.6c-1.8,0-3.5-0.9-4.9-2.7c-1.4-1.8-2.1-3.9-2.1-6.3
				c0-2.8,1-5.2,2.9-7.1c1.9-2,5.5-4.4,10.6-7.3v-3.4c0-3.1-1.2-4.6-3.7-4.6c-2.5,0-5.5,1.9-8.9,5.8v-7.2c3.2-3,6.3-4.6,9.5-4.6
				c2.6,0,4.8,0.9,6.7,2.6c1.8,1.7,2.8,4,2.8,7v20c0,1.4,0.3,2.1,1,2.1c0.4,0,1.2-0.6,2.5-1.8v4.7C325.2,67.1,323.6,68,322.3,68
				L322.3,68z M317.5,49c-4.9,3-7.3,6-7.3,9.2c0,1.2,0.3,2.1,0.9,2.9c0.6,0.7,1.3,1.1,2.2,1.1c1.1,0,2.1-0.6,3-1.8
				c0.9-1.2,1.3-1.9,1.3-2.3V49L317.5,49z M337.7,19.2c-0.7,0.7-1.5,1.1-2.5,1.1c-1,0-1.8-0.4-2.5-1.1c-0.7-0.7-1.1-1.5-1.1-2.5
				c0-1,0.4-1.9,1.1-2.6c0.7-0.7,1.5-1,2.5-1c1,0,1.8,0.3,2.5,1c0.7,0.7,1.1,1.5,1.1,2.6C338.7,17.6,338.4,18.5,337.7,19.2
				L337.7,19.2z M338.3,67.2H332V31.8h6.2V67.2L338.3,67.2z M360.6,67.2V41.8c0-3.4-1.1-5.1-3.4-5.1c-1.3,0-2.4,0.6-3.4,1.9
				c-1,1.3-1.5,2.1-1.5,2.3v26.2h-6.2V31.8h6.2v3.8h0.2c1.7-2.9,3.9-4.4,6.6-4.4c2.3,0,4.2,0.9,5.6,2.8c1.4,1.8,2.1,4.4,2.1,7.7
				v25.5H360.6L360.6,67.2z M403.5,67.2V42c0-3.5-1.1-5.3-3.4-5.3c-1.7,0-3.4,1.4-5,4.1v26.3h-6.2V42.1c0-3.6-1.1-5.4-3.4-5.4
				c-1.6,0-3.2,1.4-4.9,4.2v26.2h-6.2V31.8h6.2v3.8h0.2c1.7-2.9,3.9-4.4,6.6-4.4c3,0,5.5,1.8,7.3,5.3c1.3-1.8,2.4-3.2,3.4-4
				c1-0.9,2.3-1.3,3.9-1.3c2.3,0,4.2,0.9,5.7,2.7c1.5,1.8,2.2,4.4,2.2,7.7v25.6H403.5L403.5,67.2z M435,50.9h-13.1
				c0,7.7,2.1,11.5,6.3,11.5c2.3,0,4.3-1.2,6.1-3.5V65c-2.2,2.1-4.6,3.1-7.3,3.1c-3.6,0-6.4-1.6-8.4-4.8c-2-3.2-3-7.9-3-13.9
				c0-5.9,0.9-10.5,2.6-13.7c1.7-3.3,4.1-4.9,7.2-4.9C432,30.8,435.2,37.5,435,50.9L435,50.9z M425.2,36.2c-2.2,0-3.3,3.3-3.3,9.9
				h6.9C428.8,39.6,427.6,36.2,425.2,36.2L425.2,36.2z M456.4,67.2V41.8c0-3.4-1.1-5.1-3.4-5.1c-1.3,0-2.4,0.6-3.4,1.9
				c-1,1.3-1.5,2.1-1.5,2.3v26.2h-6.2V31.8h6.2v3.8h0.2c1.7-2.9,3.9-4.4,6.6-4.4c2.3,0,4.2,0.9,5.6,2.8c1.4,1.8,2.1,4.4,2.1,7.7
				v25.5H456.4L456.4,67.2z M478.4,61.2c0.4,0.7,1,1,1.9,1c0.9,0,2-0.3,3.4-1v5.5c-2.1,0.9-3.9,1.4-5.5,1.4c-4.4,0-6.6-2.6-6.6-7.9
				v-23h-4.1v-0.5c3-3.6,6.2-8.3,9.8-14.1h0.5v9.1h5.8v5.5h-5.8v20.2C477.9,59.3,478.1,60.6,478.4,61.2L478.4,61.2z"/>
		</defs>
		<clipPath id="SVGID_00000049193251776108568210000013557001830020595871_">
			<use xlink:href="#SVGID_1_"  style="overflow:visible;"/>
		</clipPath>
		<g style="clip-path:url(#SVGID_00000049193251776108568210000013557001830020595871_);">
			<image style="overflow:visible;" width="1378" height="328" xlink:href="9CE11A61.jpg"  transform="matrix(0.36 0 0 0.36 0 0)">
			</image>
		</g>
	</g>
	<g>
		<defs>
			<path id="SVGID_00000013154745147276833110000004792446442739370156_" d="M119.9,94.7v2h-9.1V81h8.9v2h-6.6v4.8h6.4v2h-6.4v4.9
				H119.9L119.9,94.7z M128.6,96.7v-5.9c0-1.1-0.2-1.8-0.5-2.3c-0.3-0.5-0.9-0.7-1.6-0.7c-1,0-1.8,0.5-2.5,1.4v7.4H122V86.4h2.1v1.3
				c0.9-1,2-1.5,3.1-1.5c0.6,0,1.2,0.2,1.8,0.5c0.6,0.3,1,0.8,1.3,1.4c0.3,0.6,0.4,1.5,0.4,2.8v5.9H128.6L128.6,96.7z M137.4,95
				c0.7,0,1.5-0.2,2.3-0.7v1.9c-0.8,0.4-1.6,0.7-2.6,0.7c-0.9,0-1.7-0.3-2.3-0.8c-0.2-0.2-0.4-0.4-0.5-0.6c-0.1-0.2-0.2-0.5-0.3-0.8
				c-0.1-0.3-0.1-1-0.1-1.9v-4.6h-1.8V88l3.8-3.8v2.1h3.3v1.8h-3.3v5.1C135.9,94.4,136.4,95,137.4,95L137.4,95z M142.7,91.7
				c0.1,1,0.4,1.8,1,2.4c0.6,0.6,1.4,0.9,2.4,0.9c1.3,0,2.6-0.4,3.7-1.3v2c-0.6,0.4-1.3,0.7-1.9,0.9c-0.6,0.2-1.3,0.3-2.2,0.3
				c-1.1,0-2.1-0.2-2.8-0.7c-0.7-0.5-1.3-1.1-1.7-1.9c-0.4-0.8-0.6-1.7-0.6-2.8c0-1.6,0.4-2.9,1.3-3.8c0.9-1,2-1.5,3.5-1.5
				c1.4,0,2.5,0.5,3.3,1.4c0.8,1,1.2,2.2,1.2,3.9v0.3H142.7L142.7,91.7z M147.2,88.6c-0.4-0.4-1-0.7-1.8-0.7c-0.7,0-1.3,0.2-1.8,0.7
				c-0.5,0.4-0.8,1.1-0.9,1.9h5.2C147.9,89.7,147.7,89,147.2,88.6L147.2,88.6z M158.8,89.1c-0.7-0.7-1.4-1-2-1
				c-0.7,0-1.2,0.3-1.7,0.9c-0.5,0.6-0.7,1.4-0.7,2.2v5.4h-2.1V86.4h2.1v2.4l0.1-0.2c1-1.6,2-2.4,3-2.4c0.8,0,1.6,0.4,2.4,1.2
				L158.8,89.1L158.8,89.1z M165.6,95c0.7,0,1.5-0.2,2.3-0.7v1.9c-0.8,0.4-1.6,0.7-2.6,0.7c-0.9,0-1.7-0.3-2.3-0.8
				c-0.2-0.2-0.4-0.4-0.5-0.6c-0.1-0.2-0.2-0.5-0.3-0.8c-0.1-0.3-0.1-1-0.1-1.9v-4.6h-1.8V88l3.8-3.8v2.1h3.3v1.8h-3.3v5.1
				C164.2,94.4,164.7,95,165.6,95L165.6,95z M176.3,96.7c-0.3,0.1-0.6,0.2-0.9,0.2c-0.9,0-1.4-0.3-1.5-1c-0.9,0.7-1.8,1-2.8,1
				c-0.7,0-1.3-0.2-1.8-0.7c-0.5-0.5-0.7-1.1-0.7-1.8c0-0.7,0.2-1.2,0.7-1.7c0.5-0.5,1.1-0.9,2-1.2l2.6-0.9v-0.5
				c0-1.2-0.6-1.9-1.9-1.9c-1.1,0-2.2,0.6-3.3,1.7v-2.2c0.8-0.9,1.9-1.4,3.4-1.4c1.1,0,2,0.3,2.7,0.9c0.2,0.2,0.4,0.4,0.6,0.7
				c0.2,0.3,0.3,0.6,0.3,0.9c0,0.3,0.1,0.9,0.1,1.8v4.4c0,0.4,0.1,0.5,0.4,0.5c0.2,0,0.6-0.2,1.2-0.5v1.2
				C177,96.4,176.6,96.6,176.3,96.7L176.3,96.7z M173.9,91.6l-1.4,0.5c-0.7,0.3-1.2,0.6-1.5,0.8c-0.3,0.3-0.4,0.6-0.4,1
				c0,0.4,0.1,0.8,0.4,1c0.3,0.3,0.6,0.4,1.1,0.4c0.7,0,1.3-0.3,1.8-0.8V91.6L173.9,91.6z M181.2,84.1c-0.2,0.2-0.5,0.4-0.9,0.4
				c-0.3,0-0.6-0.1-0.8-0.4c-0.2-0.2-0.4-0.5-0.4-0.8c0-0.3,0.1-0.6,0.4-0.8c0.2-0.2,0.5-0.4,0.8-0.4c0.3,0,0.6,0.1,0.9,0.3
				c0.2,0.2,0.4,0.5,0.4,0.9C181.5,83.6,181.4,83.8,181.2,84.1L181.2,84.1z M181.3,96.7h-2V86.4h2V96.7L181.3,96.7z M190.9,96.7
				v-5.9c0-1.1-0.2-1.8-0.5-2.3c-0.3-0.5-0.9-0.7-1.6-0.7c-1,0-1.8,0.5-2.5,1.4v7.4h-2.1V86.4h2.1v1.3c0.9-1,2-1.5,3.1-1.5
				c0.6,0,1.2,0.2,1.8,0.5c0.6,0.3,1,0.8,1.3,1.4c0.3,0.6,0.4,1.5,0.4,2.8v5.9H190.9L190.9,96.7z M208.7,96.7v-6.1
				c0-0.9-0.2-1.5-0.5-2c-0.4-0.5-0.9-0.7-1.5-0.7c-0.8,0-1.6,0.4-2.4,1.3v7.5h-2.1V91c0-1.1-0.2-1.9-0.5-2.4
				c-0.3-0.5-0.8-0.7-1.6-0.7c-0.4,0-0.8,0.1-1.2,0.3c-0.4,0.2-0.8,0.5-1.2,1v7.5h-2V86.4h2v1.4c1-1,2.1-1.6,3.1-1.6
				c1.3,0,2.3,0.6,3,1.9c1.1-1.3,2.2-1.9,3.4-1.9c1,0,1.8,0.4,2.5,1.1c0.6,0.7,1,1.9,1,3.4v6.1H208.7L208.7,96.7z M215.1,91.7
				c0.1,1,0.4,1.8,1,2.4c0.6,0.6,1.4,0.9,2.4,0.9c1.3,0,2.6-0.4,3.7-1.3v2c-0.6,0.4-1.3,0.7-1.9,0.9c-0.6,0.2-1.3,0.3-2.2,0.3
				c-1.1,0-2.1-0.2-2.8-0.7c-0.7-0.5-1.3-1.1-1.7-1.9c-0.4-0.8-0.6-1.7-0.6-2.8c0-1.6,0.4-2.9,1.3-3.8c0.9-1,2-1.5,3.5-1.5
				c1.4,0,2.5,0.5,3.3,1.4c0.8,1,1.2,2.2,1.2,3.9v0.3H215.1L215.1,91.7z M219.6,88.6c-0.4-0.4-1-0.7-1.8-0.7c-0.7,0-1.3,0.2-1.8,0.7
				c-0.5,0.4-0.8,1.1-0.9,1.9h5.2C220.3,89.7,220,89,219.6,88.6L219.6,88.6z M231.1,96.7v-5.9c0-1.1-0.2-1.8-0.5-2.3
				c-0.3-0.5-0.9-0.7-1.6-0.7c-1,0-1.8,0.5-2.5,1.4v7.4h-2.1V86.4h2.1v1.3c0.9-1,2-1.5,3.1-1.5c0.6,0,1.2,0.2,1.8,0.5
				c0.6,0.3,1,0.8,1.3,1.4c0.3,0.6,0.4,1.5,0.4,2.8v5.9H231.1L231.1,96.7z M239.9,95c0.7,0,1.5-0.2,2.3-0.7v1.9
				c-0.8,0.4-1.6,0.7-2.6,0.7c-0.9,0-1.7-0.3-2.3-0.8c-0.2-0.2-0.4-0.4-0.5-0.6c-0.1-0.2-0.2-0.5-0.3-0.8c-0.1-0.3-0.1-1-0.1-1.9
				v-4.6h-1.8V88l3.8-3.8v2.1h3.3v1.8h-3.3v5.1C238.4,94.4,238.9,95,239.9,95L239.9,95z M250.8,102V81h1.8v21H250.8L250.8,102z
				 M271.8,94.7v2h-9.1V81h8.9v2H265v4.8h6.4v2H265v4.9H271.8L271.8,94.7z M278.5,96.7c-1.5,0-2.7-0.5-3.7-1.4
				c-0.9-1-1.4-2.3-1.4-3.9c0-1.5,0.5-2.8,1.4-3.8c1-1,2.2-1.5,3.7-1.5c0.7,0,1.4,0.1,2.2,0.4V81h2.1v15.7H278.5L278.5,96.7z
				 M280.9,88.4c-0.6-0.3-1.3-0.5-1.9-0.5c-1,0-1.8,0.3-2.4,1c-0.6,0.7-0.9,1.6-0.9,2.7c0,1.1,0.3,1.9,0.8,2.5
				c0.3,0.3,0.6,0.6,1,0.7c0.4,0.1,1,0.2,1.9,0.2h1.6V88.4L280.9,88.4z M292.3,96.7v-1.3c-0.4,0.5-0.9,0.8-1.5,1.1
				c-0.6,0.3-1.1,0.4-1.7,0.4c-0.7,0-1.3-0.2-1.8-0.5c-0.5-0.3-1-0.8-1.2-1.3c-0.3-0.6-0.4-1.5-0.4-2.8v-5.9h2v5.9
				c0,1.1,0.2,1.8,0.5,2.3c0.3,0.4,0.9,0.6,1.6,0.6c1,0,1.8-0.5,2.5-1.4v-7.4h2v10.3H292.3L292.3,96.7z M302.2,95
				c0.8,0,1.7-0.2,2.7-0.7v2c-1,0.4-2,0.6-3,0.6c-1.6,0-2.9-0.5-3.9-1.4s-1.4-2.2-1.4-3.9c0-1.6,0.5-2.9,1.4-3.9
				c0.9-1,2.2-1.5,3.7-1.5c0.5,0,1,0.1,1.4,0.2c0.4,0.1,0.9,0.3,1.6,0.6v2.2c-1-0.7-2-1-2.9-1c-0.9,0-1.7,0.3-2.3,1
				c-0.6,0.6-0.9,1.5-0.9,2.5c0,1.1,0.3,1.9,1,2.5C300.3,94.7,301.1,95,302.2,95L302.2,95z M314.1,96.7c-0.3,0.1-0.6,0.2-0.9,0.2
				c-0.9,0-1.4-0.3-1.6-1c-0.9,0.7-1.8,1-2.8,1c-0.7,0-1.3-0.2-1.8-0.7c-0.5-0.5-0.7-1.1-0.7-1.8c0-0.7,0.2-1.2,0.7-1.7
				c0.5-0.5,1.1-0.9,2-1.2l2.6-0.9v-0.5c0-1.2-0.6-1.9-1.9-1.9c-1.1,0-2.2,0.6-3.3,1.7v-2.2c0.8-0.9,1.9-1.4,3.4-1.4
				c1.1,0,2,0.3,2.7,0.9c0.2,0.2,0.4,0.4,0.6,0.7c0.2,0.3,0.3,0.6,0.3,0.9c0,0.3,0.1,0.9,0.1,1.8v4.4c0,0.4,0.1,0.5,0.4,0.5
				c0.2,0,0.6-0.2,1.2-0.5v1.2C314.8,96.4,314.4,96.6,314.1,96.7L314.1,96.7z M311.7,91.6l-1.4,0.5c-0.7,0.3-1.2,0.6-1.5,0.8
				c-0.3,0.3-0.4,0.6-0.4,1c0,0.4,0.1,0.8,0.4,1c0.3,0.3,0.6,0.4,1.1,0.4c0.7,0,1.3-0.3,1.8-0.8V91.6L311.7,91.6z M320.9,95
				c0.7,0,1.5-0.2,2.3-0.7v1.9c-0.8,0.4-1.6,0.7-2.6,0.7c-0.9,0-1.7-0.3-2.3-0.8c-0.2-0.2-0.4-0.4-0.5-0.6c-0.1-0.2-0.2-0.5-0.3-0.8
				c-0.1-0.3-0.1-1-0.1-1.9v-4.6h-1.8V88l3.8-3.8v2.1h3.3v1.8h-3.3v5.1C319.5,94.4,320,95,320.9,95L320.9,95z M326.6,84.1
				c-0.2,0.2-0.5,0.4-0.9,0.4c-0.3,0-0.6-0.1-0.8-0.4c-0.2-0.2-0.4-0.5-0.4-0.8c0-0.3,0.1-0.6,0.4-0.8c0.2-0.2,0.5-0.4,0.8-0.4
				c0.3,0,0.6,0.1,0.9,0.3c0.2,0.2,0.4,0.5,0.4,0.9C327,83.6,326.9,83.8,326.6,84.1L326.6,84.1z M326.8,96.7h-2V86.4h2V96.7
				L326.8,96.7z M338.6,95.4c-1.1,1-2.4,1.5-4,1.5c-1.5,0-2.8-0.5-3.9-1.5c-1-1-1.6-2.2-1.6-3.7c0-1.5,0.5-2.8,1.6-3.8
				c1.1-1,2.4-1.5,4-1.5c1.6,0,2.9,0.5,3.9,1.5c1,1,1.6,2.3,1.6,3.8C340.2,93.2,339.7,94.4,338.6,95.4L338.6,95.4z M337.1,89.2
				c-0.7-0.6-1.5-1-2.5-1c-1,0-1.8,0.3-2.4,1c-0.6,0.6-0.9,1.5-0.9,2.5c0,1,0.3,1.8,1,2.4c0.6,0.6,1.5,0.9,2.5,0.9
				c1,0,1.8-0.3,2.5-0.9c0.6-0.6,1-1.4,1-2.4C338.1,90.6,337.8,89.8,337.1,89.2L337.1,89.2z M349.1,96.7v-5.9c0-1.1-0.2-1.8-0.5-2.3
				c-0.3-0.5-0.9-0.7-1.6-0.7c-1,0-1.8,0.5-2.5,1.4v7.4h-2.1V86.4h2.1v1.3c0.9-1,2-1.5,3.1-1.5c0.6,0,1.2,0.2,1.8,0.5
				c0.6,0.3,1,0.8,1.3,1.4c0.3,0.6,0.4,1.5,0.4,2.8v5.9H349.1L349.1,96.7z M361,102V81h1.8v21H361L361,102z M382.1,94.7v2H373V81
				h8.9v2h-6.6v4.8h6.4v2h-6.4v4.9H382.1L382.1,94.7z M390.8,96.7v-5.9c0-1.1-0.2-1.8-0.5-2.3c-0.3-0.5-0.9-0.7-1.6-0.7
				c-1,0-1.8,0.5-2.5,1.4v7.4h-2.1V86.4h2.1v1.3c0.9-1,2-1.5,3.1-1.5c0.6,0,1.2,0.2,1.8,0.5c0.6,0.3,1,0.8,1.3,1.4
				c0.3,0.6,0.4,1.5,0.4,2.8v5.9H390.8L390.8,96.7z M401.9,88c0.4,0.4,0.7,0.8,0.8,1.1c0.2,0.3,0.2,0.7,0.2,1.2
				c0,0.5-0.2,1.1-0.5,1.6c-0.3,0.5-0.7,0.9-1.2,1.2c-0.5,0.3-1.3,0.5-2.4,0.7c-0.8,0.1-1.2,0.4-1.2,0.8c0,0.2,0.1,0.4,0.4,0.6
				c0.3,0.2,0.8,0.3,1.6,0.5c1.3,0.3,2.1,0.5,2.4,0.7c0.4,0.2,0.7,0.4,1,0.7c0.5,0.5,0.7,1.1,0.7,1.9c0,1-0.4,1.8-1.3,2.3
				c-0.9,0.6-2,0.9-3.5,0.9c-1.5,0-2.7-0.3-3.5-0.9c-0.9-0.6-1.3-1.4-1.3-2.4c0-1.4,0.9-2.3,2.6-2.7c-0.7-0.4-1-0.9-1-1.3
				c0-0.3,0.1-0.6,0.4-0.9c0.3-0.3,0.7-0.5,1.2-0.6c-1.5-0.7-2.3-1.8-2.3-3.3c0-1.1,0.4-2,1.2-2.6c0.8-0.6,1.9-1,3.3-1h4.3V88H401.9
				L401.9,88z M396.9,97.6c-0.4,0.3-0.7,0.7-0.7,1.1c0,1.1,1,1.6,2.9,1.6c0.9,0,1.6-0.1,2.1-0.4c0.5-0.3,0.7-0.6,0.7-1.1
				c0-0.5-0.3-0.9-0.9-1.2c-0.6-0.3-1.4-0.5-2.4-0.5C397.9,97.2,397.3,97.3,396.9,97.6L396.9,97.6z M400.5,88.7
				c-0.4-0.4-0.9-0.5-1.5-0.5c-0.6,0-1,0.2-1.4,0.6c-0.4,0.4-0.6,0.8-0.6,1.3c0,0.5,0.2,1,0.6,1.3c0.4,0.3,0.9,0.5,1.4,0.5
				c0.6,0,1.1-0.2,1.4-0.5c0.4-0.4,0.6-0.8,0.6-1.3C401.1,89.5,400.9,89,400.5,88.7L400.5,88.7z M412.4,96.7
				c-0.3,0.1-0.6,0.2-0.9,0.2c-0.9,0-1.4-0.3-1.5-1c-0.9,0.7-1.8,1-2.8,1c-0.7,0-1.3-0.2-1.8-0.7c-0.5-0.5-0.7-1.1-0.7-1.8
				c0-0.7,0.2-1.2,0.7-1.7c0.5-0.5,1.1-0.9,2-1.2l2.6-0.9v-0.5c0-1.2-0.6-1.9-1.9-1.9c-1.1,0-2.2,0.6-3.3,1.7v-2.2
				c0.8-0.9,1.9-1.4,3.4-1.4c1.1,0,2,0.3,2.7,0.9c0.2,0.2,0.4,0.4,0.6,0.7c0.2,0.3,0.3,0.6,0.3,0.9c0,0.3,0.1,0.9,0.1,1.8v4.4
				c0,0.4,0.1,0.5,0.4,0.5c0.2,0,0.6-0.2,1.2-0.5v1.2C413.1,96.4,412.7,96.6,412.4,96.7L412.4,96.7z M410,91.6l-1.4,0.5
				c-0.7,0.3-1.2,0.6-1.5,0.8c-0.3,0.3-0.4,0.6-0.4,1c0,0.4,0.1,0.8,0.4,1c0.3,0.3,0.6,0.4,1.1,0.4c0.7,0,1.3-0.3,1.8-0.8V91.6
				L410,91.6z M421.5,88c0.4,0.4,0.7,0.8,0.8,1.1c0.2,0.3,0.2,0.7,0.2,1.2c0,0.5-0.2,1.1-0.5,1.6c-0.3,0.5-0.7,0.9-1.2,1.2
				c-0.5,0.3-1.3,0.5-2.4,0.7c-0.8,0.1-1.2,0.4-1.2,0.8c0,0.2,0.1,0.4,0.4,0.6c0.3,0.2,0.8,0.3,1.6,0.5c1.3,0.3,2.1,0.5,2.4,0.7
				c0.4,0.2,0.7,0.4,1,0.7c0.5,0.5,0.7,1.1,0.7,1.9c0,1-0.4,1.8-1.3,2.3c-0.9,0.6-2,0.9-3.5,0.9c-1.5,0-2.7-0.3-3.5-0.9
				c-0.9-0.6-1.3-1.4-1.3-2.4c0-1.4,0.9-2.3,2.6-2.7c-0.7-0.4-1-0.9-1-1.3c0-0.3,0.1-0.6,0.4-0.9c0.3-0.3,0.7-0.5,1.2-0.6
				c-1.5-0.7-2.3-1.8-2.3-3.3c0-1.1,0.4-2,1.2-2.6c0.8-0.6,1.9-1,3.3-1h4.3V88H421.5L421.5,88z M416.5,97.6
				c-0.4,0.3-0.7,0.7-0.7,1.1c0,1.1,1,1.6,2.9,1.6c0.9,0,1.6-0.1,2.1-0.4c0.5-0.3,0.7-0.6,0.7-1.1c0-0.5-0.3-0.9-0.9-1.2
				c-0.6-0.3-1.4-0.5-2.4-0.5C417.5,97.2,416.9,97.3,416.5,97.6L416.5,97.6z M420.1,88.7c-0.4-0.4-0.9-0.5-1.5-0.5
				c-0.6,0-1,0.2-1.4,0.6c-0.4,0.4-0.6,0.8-0.6,1.3c0,0.5,0.2,1,0.6,1.3c0.4,0.3,0.9,0.5,1.4,0.5c0.6,0,1.1-0.2,1.4-0.5
				c0.4-0.4,0.6-0.8,0.6-1.3C420.7,89.5,420.5,89,420.1,88.7L420.1,88.7z M426.7,91.7c0.1,1,0.4,1.8,1,2.4c0.6,0.6,1.4,0.9,2.4,0.9
				c1.3,0,2.6-0.4,3.7-1.3v2c-0.6,0.4-1.3,0.7-1.9,0.9c-0.6,0.2-1.3,0.3-2.2,0.3c-1.1,0-2.1-0.2-2.8-0.7c-0.7-0.5-1.3-1.1-1.7-1.9
				c-0.4-0.8-0.6-1.7-0.6-2.8c0-1.6,0.4-2.9,1.3-3.8c0.9-1,2-1.5,3.5-1.5c1.4,0,2.5,0.5,3.3,1.4c0.8,1,1.2,2.2,1.2,3.9v0.3H426.7
				L426.7,91.7z M431.2,88.6c-0.4-0.4-1-0.7-1.8-0.7c-0.7,0-1.3,0.2-1.8,0.7c-0.5,0.4-0.8,1.1-0.9,1.9h5.2
				C431.9,89.7,431.6,89,431.2,88.6L431.2,88.6z"/>
		</defs>
		<clipPath id="SVGID_00000058580335777705340530000016772397390434365598_">
			<use xlink:href="#SVGID_00000013154745147276833110000004792446442739370156_"  style="overflow:visible;"/>
		</clipPath>
		<g style="clip-path:url(#SVGID_00000058580335777705340530000016772397390434365598_);">
			<image style="overflow:visible;" width="1378" height="328" xlink:href="9CE11A67.jpg"  transform="matrix(0.36 0 0 0.36 0 0)">
			</image>
		</g>
	</g>
	<g>
		<defs>
			<path id="SVGID_00000171690151788419337850000015189366042448233896_" d="M449.1,96.7v-6.1c0-0.9-0.2-1.5-0.5-2
				c-0.4-0.5-0.9-0.7-1.5-0.7c-0.8,0-1.6,0.4-2.4,1.3v7.5h-2.1V91c0-1.1-0.2-1.9-0.5-2.4c-0.3-0.5-0.8-0.7-1.6-0.7
				c-0.4,0-0.8,0.1-1.2,0.3c-0.4,0.2-0.8,0.5-1.2,1v7.5h-2V86.4h2v1.4c1-1,2.1-1.6,3.1-1.6c1.3,0,2.3,0.6,3,1.9
				c1.1-1.3,2.2-1.9,3.4-1.9c1,0,1.8,0.4,2.5,1.1c0.6,0.7,1,1.9,1,3.4v6.1H449.1L449.1,96.7z M455.4,91.7c0.1,1,0.4,1.8,1,2.4
				c0.6,0.6,1.4,0.9,2.4,0.9c1.3,0,2.6-0.4,3.7-1.3v2c-0.6,0.4-1.3,0.7-1.9,0.9c-0.6,0.2-1.3,0.3-2.2,0.3c-1.1,0-2.1-0.2-2.8-0.7
				c-0.7-0.5-1.3-1.1-1.7-1.9c-0.4-0.8-0.6-1.7-0.6-2.8c0-1.6,0.4-2.9,1.3-3.8c0.9-1,2-1.5,3.5-1.5c1.4,0,2.5,0.5,3.3,1.4
				c0.8,1,1.2,2.2,1.2,3.9v0.3H455.4L455.4,91.7z M460,88.6c-0.4-0.4-1-0.7-1.8-0.7c-0.7,0-1.3,0.2-1.8,0.7
				c-0.5,0.4-0.8,1.1-0.9,1.9h5.2C460.6,89.7,460.4,89,460,88.6L460,88.6z M471.5,96.7v-5.9c0-1.1-0.2-1.8-0.5-2.3
				c-0.3-0.5-0.9-0.7-1.6-0.7c-1,0-1.8,0.5-2.5,1.4v7.4h-2.1V86.4h2.1v1.3c0.9-1,2-1.5,3.1-1.5c0.6,0,1.2,0.2,1.8,0.5
				c0.6,0.3,1,0.8,1.3,1.4c0.3,0.6,0.4,1.5,0.4,2.8v5.9H471.5L471.5,96.7z M480.3,95c0.7,0,1.5-0.2,2.3-0.7v1.9
				c-0.8,0.4-1.6,0.7-2.6,0.7c-0.9,0-1.7-0.3-2.3-0.8c-0.2-0.2-0.4-0.4-0.5-0.6c-0.1-0.2-0.2-0.5-0.3-0.8c-0.1-0.3-0.1-1-0.1-1.9
				v-4.6H475V88l3.8-3.8v2.1h3.3v1.8h-3.3v5.1C478.8,94.4,479.3,95,480.3,95L480.3,95z"/>
		</defs>
		<clipPath id="SVGID_00000101823560408062117680000005853939400078365571_">
			<use xlink:href="#SVGID_00000171690151788419337850000015189366042448233896_"  style="overflow:visible;"/>
		</clipPath>
		<g style="clip-path:url(#SVGID_00000101823560408062117680000005853939400078365571_);">
			<image style="overflow:visible;" width="1378" height="328" xlink:href="9CE11A62.jpg"  transform="matrix(0.36 0 0 0.36 0 0)">
			</image>
		</g>
	</g>
</g>
</svg>
