<svg xmlns="http://www.w3.org/2000/svg" width="42" height="42" viewBox="0 0 42 42">
  <g id="Group_11076" data-name="Group 11076" transform="translate(-1276 -217)">
    <rect id="Rectangle_4450" data-name="Rectangle 4450" width="42" height="42" rx="6" transform="translate(1276 217)" fill="#ffe8dc"/>
    <g id="Icon_core-building" data-name="Icon core-building" transform="translate(1283.604 224.479)">
      <path id="Path_18334" data-name="Path 18334" d="M22.8,24.032V1.125H3.988V24.032H1.125v1.636H25.668V24.032Zm-1.636,0H14.215V20.759H12.578v3.272H5.625V2.761H21.168Z" fill="#eab87d"/>
      <path id="Path_18335" data-name="Path 18335" d="M11.25,17.692h1.636v1.636H11.25Zm4.09,0h1.636v1.636H15.34Zm4.09,0h1.636v1.636H19.431ZM11.25,12.784h1.636V14.42H11.25Zm4.09,0h1.636V14.42H15.34Zm4.09,0h1.636V14.42H19.431ZM11.25,7.875h1.636V9.511H11.25Zm4.09,0h1.636V9.511H15.34Zm4.09,0h1.636V9.511H19.431Z" transform="translate(-2.762 -1.841)" fill="#eab87d"/>
    </g>
  </g>
</svg>
