<svg xmlns="http://www.w3.org/2000/svg" width="42" height="42" viewBox="0 0 42 42">
  <g id="Group_11073" data-name="Group 11073" transform="translate(-480 -217)">
    <rect id="Rectangle_4447" data-name="Rectangle 4447" width="42" height="42" rx="6" transform="translate(480 217)" fill="#dbedff"/>
    <path id="Icon_core-dollar" data-name="Icon core-dollar" d="M17.993,13.6h-4.2a2.426,2.426,0,1,1,0-4.853h6.719V7.064h-3.57V3.937h-1.68V7.064h-1.47a4.106,4.106,0,1,0,0,8.213h4.2A2.429,2.429,0,0,1,20.42,17.7v.187a2.429,2.429,0,0,1-2.426,2.426H10.885V22h4.378v2.94h1.68V22h1.05A4.111,4.111,0,0,0,22.1,17.89V17.7A4.111,4.111,0,0,0,17.993,13.6Z" transform="translate(485.105 223.563)" fill="#649dc9"/>
  </g>
</svg>
