<svg xmlns="http://www.w3.org/2000/svg" width="41" height="41" viewBox="0 0 41 41">
  <g id="Group_11041" data-name="Group 11041" transform="translate(-1102 -23)">
    <circle id="Ellipse_128" data-name="Ellipse 128" cx="20.5" cy="20.5" r="20.5" transform="translate(1102 23)" fill="#f3f3f3"/>
    <g id="contact_9774942" transform="translate(1113 34)">
      <path id="Path_18339" data-name="Path 18339" d="M17.469,2.323C15.993.8,13.588.066,9.9,0H9.889C6.2.066,3.8.8,2.323,2.323.8,3.8.066,6.2,0,9.892V9.9C.066,13.592.8,16,2.323,17.469,3.8,18.988,6.2,19.727,9.889,19.793H9.9c3.688-.066,6.092-.8,7.565-2.323,1.519-1.477,2.258-3.881,2.323-7.565V9.892c-.058-3.688-.8-6.092-2.316-7.569Zm-.4,14.744-.008.008c-1.365,1.407-3.642,2.091-7.171,2.157-3.529-.066-5.806-.75-7.171-2.157l-.008-.008C1.314,15.7.626,13.426.564,9.9c.062-3.529.75-5.806,2.157-7.171l.008-.008C4.09,1.314,6.367.626,9.9.564c3.529.066,5.806.75,7.171,2.157l.008.008c1.407,1.365,2.091,3.642,2.157,7.171C19.166,13.426,18.478,15.7,17.071,17.067Z" transform="translate(0 0)" fill="#333" stroke="#333" stroke-width="0.3"/>
      <path id="Path_18340" data-name="Path 18340" d="M125.713,254.407c-.1-2.08-2.5-3.707-5.455-3.707s-5.346,1.627-5.455,3.7v.015l0,.9a1.889,1.889,0,0,0,1.886,1.886h7.14a1.889,1.889,0,0,0,1.886-1.886v-.908Zm-1.883,2.231h-7.144a1.321,1.321,0,0,1-1.322-1.322l0-.889a2.924,2.924,0,0,1,1.45-2.207,6.676,6.676,0,0,1,6.881,0,2.924,2.924,0,0,1,1.45,2.211v.885A1.321,1.321,0,0,1,123.83,256.638Z" transform="translate(-110.362 -241.008)" fill="#333" stroke="#333" stroke-width="0.3"/>
      <path id="Path_18341" data-name="Path 18341" d="M187.794,98.489a2.694,2.694,0,1,0-2.694-2.694A2.7,2.7,0,0,0,187.794,98.489Zm0-4.824a2.13,2.13,0,1,1-2.13,2.13A2.132,2.132,0,0,1,187.794,93.664Z" transform="translate(-177.945 -89.501)" fill="#333" stroke="#333" stroke-width="0.3"/>
    </g>
  </g>
</svg>
